<?xml version="1.0" encoding="utf-8"?>
<!-- Generator: Adobe Illustrator 18.1.0, SVG Export Plug-In . SVG Version: 6.00 Build 0)  -->
<!DOCTYPE svg PUBLIC "-//W3C//DTD SVG 1.1//EN" "http://www.w3.org/Graphics/SVG/1.1/DTD/svg11.dtd">
<svg version="1.1" id="Layer_1" xmlns="http://www.w3.org/2000/svg" xmlns:xlink="http://www.w3.org/1999/xlink" x="0px" y="0px"
	 viewBox="-310 670.2 873.2 159.1" enable-background="new -310 670.2 873.2 159.1" xml:space="preserve">
<g>
	<polygon fill="#007CBA" points="-237,799.8 -220.9,799.8 -220.9,724.4 -148,799.8 -143.4,799.8 -143.4,696.7 -159.6,696.7 
		-159.6,765.9 -227.5,696.7 -237,696.7 	"/>
	<polygon fill="#007CBA" points="142,696.3 136.2,696.3 87.3,799.8 104.3,799.8 138.7,726.5 171.8,799.8 189.2,799.8 	"/>
	<path fill="#007CBA" d="M-252.8,711.2h-41.4v30.7h40.2v12.8h-40.2v30.7h41.4v14.9H-310V696.7h57.2V711.2z"/>
	<path fill="#007CBA" d="M49.2,696.7v88.6h30.2L72,800.2H33V696.7H49.2z"/>
	<path opacity="0.6" fill="#007CBA" enable-background="new    " d="M3.2,756.3c-6.6-7.9-15.3-15.3-24.9-22.4
		c-4.1-2.9-8.7-5.8-13.3-8.7c0,1.7-0.8,3.3-1.7,5c-0.4,0.8-0.8,0.8-1.2,1.7c12.8,7.9,23.2,16.6,30.2,24.9c7.9,9.5,10.8,17,7.9,22
		c-2.1,3.3-6.2,5-12.8,5c-2.9,0-6.6-0.4-10.4-0.8c-12.8-2.5-27.3-8.3-42.7-17c-14.5-8.3-26.1-17.8-34.8-27.8
		c-8.7-9.5-11.2-17.4-8.3-22.4c1.7-3.3,6.2-5,12.8-5c2.9,0,6.6,0.4,10.4,0.8c11.6,2.1,24,7,37.3,14.1c0,0.4,0,0.8,0,1.7
		c0.8,1.7,2.1,3.3,4.1,3.7c3.3,0.8,5.8-1.2,6.6-4.1c0.8-3.3-1.2-5.8-4.1-6.6c-0.8,0-1.7,0-2.1,0h-0.8c-16.6-9.1-32.3-14.9-46.4-17.8
		c-5-0.8-9.9-1.7-13.7-1.7c-8.7,0-14.5,2.5-17,7c-4.6,7.9-0.8,18.6,11.6,31.5c10.8,11.6,24.4,22.4,41,31.9
		c18.6,10.8,36,17.8,51.8,20.7c5,0.8,9.9,1.7,13.7,1.7c8.7,0,14.5-2.5,17.4-7.5C17.3,778.7,14,769.2,3.2,756.3z"/>
	<path fill="#007CBA" d="M-34.1,693c-5.4-16.2-12.4-22.8-20.3-22.8l0,0c-6.2,0-11.6,3.7-16.6,12.8c-2.5,0.4-5,2.1-5.8,5
		c0,0,0,0,0,0.8c-0.8,4.1,1.7,8.3,5.8,9.1c4.1,0.8,8.7-1.7,9.5-5.8c0-0.8,0-1.2,0-1.7c0-0.8-0.8-1.7-1.2-2.1
		c2.5-2.5,5.4-3.3,6.6-3.3h0.8c5.8,0,11.2,5.8,15.7,17.8c4.1,12.4,7,27.8,7,45.6c0,16.6-2.1,31.5-6.6,43.9
		c-4.1,12-9.1,18.2-15.3,18.2c-5.8,0-10.8-5.8-14.9-17.8c-4.1-12.4-6.6-27.3-6.6-45.2c0-17.4,2.1-32.3,6.2-44.3l0,0
		c-0.8,0-1.7,0-2.1,0c-1.7-0.4-3.7-1.2-5-2.5c-2.1,7.9-3.7,16.2-4.6,25.3c-0.8,6.6-0.8,14.1-0.8,21.5c0,21.1,2.5,41.4,7.9,56.3
		c5.8,16.2,12.4,25.3,20.3,25.3l0,0c9.1,0,16.2-10.4,21.5-27.3c4.6-15.3,7-32.7,7-51.8C-25.8,726.9-28.7,708.3-34.1,693z"/>
	<path opacity="0.8" fill="#007CBA" enable-background="new    " d="M13.2,707.5c-2.9-5-9.1-7.9-17.4-7.9c-4.1,0-9.9,0.8-15.7,2.1
		C-35.3,705-51.5,712-68,721.5c-18.6,10.8-33.6,22.4-43.9,34.4c-11.2,12.8-14.5,22.4-10.4,29.4c2.9,5,8.7,7.5,17.4,7.5
		c0,0,0,0,0.4,0c-1.2-2.1-1.7-4.6-1.2-7c0-1.7,0.8-2.5,1.7-3.7c-2.5-0.8-4.1-2.5-5-4.1c-2.9-5,0-12.4,7.9-22
		c8.7-9.9,20.7-19.5,36.5-28.6c14.5-8.3,28.2-13.7,41.4-16.6c4.1-0.8,7.9-1.2,10.8-1.2c6.6,0,10.8,1.7,12.8,5.4c2.9,5,0,12.4-7.9,22
		c-8.7,9.9-20.7,19.5-36,28.6c-15.3,8.7-29,14.5-41.4,17c-0.8-1.2-2.5-2.1-4.1-2.5c-0.8,0-1.2,0-1.7,0c-3.3,0-7,2.5-7.9,6.2
		c-0.8,4.1,1.7,8.7,5.8,9.5c0.8,0,2.1,0,3.3,0c2.5-0.4,5-2.5,5.8-5.4c7.9-2.1,15.7-5,24-8.7c6.2-2.5,12.4-5.8,19.1-9.9
		c18.6-10.8,33.1-22.4,43.5-34.4C14,724.4,17.3,714.5,13.2,707.5z"/>
	<polygon fill="#007CBA" points="362.8,696.3 356.6,696.3 308.1,799.8 325.1,799.8 359.5,726.1 392.6,799.8 409.6,799.8 	"/>
	<path fill="#007CBA" d="M271.2,696.7v88.6h30.7l-6.6,14.5h-38.9V696.7H271.2z"/>
	<path fill="#007CBA" d="M422.8,799.4V696.3h15.7c6.6,0,12.4,0.8,16.6,1.7c4.1,0.8,7.5,2.9,10.4,5.4c2.9,2.5,5.4,5.8,6.6,9.9
		c1.7,3.7,2.5,7.9,2.5,12c0,7.5-2.9,13.7-8.3,19.1c5.4,2.1,9.9,5.4,12.8,9.9c3.3,4.6,5,9.9,5,16.2c0,8.3-2.9,14.9-8.3,20.7
		c-3.7,3.7-7,5.8-11.6,7c-4.6,1.2-10.4,2.1-17.4,2.1L422.8,799.4L422.8,799.4L422.8,799.4z M438.6,740.6h5c5.8,0,9.9-1.2,12.8-3.7
		c2.5-2.5,3.7-6.2,3.7-11.6c0-5-1.2-8.3-4.1-11.2c-2.5-2.5-6.6-3.7-12-3.7h-5.4V740.6L438.6,740.6z M438.6,784.9h9.9
		c7,0,12-1.2,15.7-4.1c3.7-2.9,5.4-6.6,5.4-11.6c0-4.6-1.7-8.3-5-11.2c-3.3-2.9-9.1-4.6-17.4-4.6h-7.9L438.6,784.9L438.6,784.9
		L438.6,784.9z"/>
	<path fill="#007CBA" d="M522.7,748.5c-14.1-5.8-21.1-14.5-21.1-26.1c0-7.9,2.9-14.5,8.7-19.5c5.8-5.4,13.3-7.9,22-7.9
		c12,0,21.1,5.8,28.2,17.4l-12.8,7.5c-2.5-4.1-4.6-6.6-6.6-8.3c-2.5-1.2-5.4-2.5-8.3-2.5c-4.1,0-7.9,1.2-10.8,3.7
		c-2.9,2.5-4.1,5.4-4.1,9.1c0,5,3.7,9.1,11.2,12l10.4,4.1c8.3,3.3,14.5,7.5,18.2,12.4c3.7,5,5.8,10.8,5.8,17.8
		c0,9.5-3.3,17.4-9.5,23.6c-6.6,6.2-14.5,9.5-23.6,9.5c-8.7,0-16.2-2.5-22-8.3c-5.8-5.4-9.5-12.8-10.8-22.4l15.7-3.7
		c0.8,6.2,2.1,9.9,3.7,12.8c3.3,4.6,7.9,6.6,14.1,6.6c5,0,8.7-1.7,12-5c3.3-3.3,5-7.5,5-12.4c0-2.1-0.4-3.7-0.8-5.4
		c-0.8-1.7-1.2-3.3-2.5-4.6c-1.2-1.2-2.5-2.5-4.6-3.7c-2.1-1.2-4.1-2.5-6.6-3.7L522.7,748.5"/>
</g>
</svg>
